<svg height="512" viewBox="0 0 192 192" width="512" xmlns="http://www.w3.org/2000/svg" style="fill: #9A9AA6;"><circle cx="72" cy="32" r="32"/><path d="m118.745 94.043a40.071 40.071 0 0 0 -38.745-30.043h-16a40.045 40.045 0 0 0 -40 40v32a8 8 0 0 0 8 8h56a56.047 56.047 0 0 1 30.745-49.957z"/><path d="m144 96a48 48 0 1 0 48 48 48.055 48.055 0 0 0 -48-48zm27.578 52.789c-6.446 12.89-24.986 22.382-25.772 22.78-.452.229-1.311.914-1.806.914s-1.354-.685-1.806-.914c-.786-.4-19.326-9.89-25.772-22.78-4.685-9.37-2.7-20.054 4.728-25.406 5.313-3.828 13.871-4.98 22.85 2.241 8.979-7.223 17.537-6.07 22.85-2.241 7.424 5.352 9.413 16.036 4.728 25.406z"/></svg>